<svg xmlns="http://www.w3.org/2000/svg" viewBox="0 0 32 32" role="img" aria-label="Ads2Wallet">
  <rect width="32" height="32" rx="8" fill="#0B1220"/>
  <rect x="1" y="1" width="30" height="30" rx="7" fill="none" stroke="#3FE0C8" stroke-width="1.25" opacity="0.45"/>
  <path
    d="M8 13.5h16a2 2 0 0 1 2 2v9.5a2 2 0 0 1-2 2H8a2 2 0 0 1-2-2V15.5a2 2 0 0 1 2-2z"
    fill="none"
    stroke="#3FE0C8"
    stroke-width="1.85"
    stroke-linejoin="round"
  />
  <path
    d="M8 13.5V12a3.5 3.5 0 0 1 3.5-3.5h9A3.5 3.5 0 0 1 24 12v1.5"
    fill="none"
    stroke="#3FE0C8"
    stroke-width="1.85"
    stroke-linecap="round"
  />
  <circle cx="22" cy="19.5" r="1.75" fill="#3FE0C8"/>
</svg>
